<mxfile host="app.diagrams.net" agent="Mozilla/5.0 (X11; Linux x86_64) AppleWebKit/537.36 (KHTML, like Gecko) Chrome/139.0.0.0 Safari/537.36" version="28.1.1">
  <diagram name="Halaman-1" id="tu5mZIWIp-PcBaQ12o6A">
    <mxGraphModel dx="548" dy="488" grid="1" gridSize="10" guides="1" tooltips="1" connect="1" arrows="1" fold="1" page="1" pageScale="1" pageWidth="1169" pageHeight="827" math="0" shadow="0">
      <root>
        <mxCell id="0" />
        <mxCell id="1" parent="0" />
        <mxCell id="pEV8uyBlemZev40eMHo9-47" value="" style="rounded=0;whiteSpace=wrap;html=1;strokeColor=default;align=center;verticalAlign=middle;fontFamily=Helvetica;fontSize=12;fontColor=default;fillColor=none;dashed=1;dashPattern=8 8;" parent="1" vertex="1">
          <mxGeometry x="50" y="50" width="380" height="300" as="geometry" />
        </mxCell>
        <mxCell id="pEV8uyBlemZev40eMHo9-48" value="" style="rounded=0;whiteSpace=wrap;html=1;strokeColor=default;align=center;verticalAlign=middle;fontFamily=Helvetica;fontSize=12;fontColor=default;fillColor=none;dashed=1;dashPattern=8 8;" parent="1" vertex="1">
          <mxGeometry x="490" y="50" width="380" height="300" as="geometry" />
        </mxCell>
        <mxCell id="pEV8uyBlemZev40eMHo9-1" value="" style="rounded=0;whiteSpace=wrap;html=1;" parent="1" vertex="1">
          <mxGeometry x="80" y="80" width="40" height="60" as="geometry" />
        </mxCell>
        <mxCell id="pEV8uyBlemZev40eMHo9-2" value="" style="rounded=0;whiteSpace=wrap;html=1;" parent="1" vertex="1">
          <mxGeometry x="120" y="80" width="40" height="60" as="geometry" />
        </mxCell>
        <mxCell id="pEV8uyBlemZev40eMHo9-3" value="" style="rounded=0;whiteSpace=wrap;html=1;" parent="1" vertex="1">
          <mxGeometry x="160" y="80" width="40" height="60" as="geometry" />
        </mxCell>
        <mxCell id="pEV8uyBlemZev40eMHo9-4" value="" style="rounded=0;whiteSpace=wrap;html=1;" parent="1" vertex="1">
          <mxGeometry x="200" y="80" width="40" height="60" as="geometry" />
        </mxCell>
        <mxCell id="pEV8uyBlemZev40eMHo9-5" value="" style="rounded=0;whiteSpace=wrap;html=1;" parent="1" vertex="1">
          <mxGeometry x="240" y="80" width="40" height="60" as="geometry" />
        </mxCell>
        <mxCell id="pEV8uyBlemZev40eMHo9-6" value="" style="rounded=0;whiteSpace=wrap;html=1;" parent="1" vertex="1">
          <mxGeometry x="280" y="80" width="40" height="60" as="geometry" />
        </mxCell>
        <mxCell id="pEV8uyBlemZev40eMHo9-7" value="" style="rounded=0;whiteSpace=wrap;html=1;" parent="1" vertex="1">
          <mxGeometry x="320" y="80" width="40" height="60" as="geometry" />
        </mxCell>
        <mxCell id="pEV8uyBlemZev40eMHo9-8" value="" style="rounded=0;whiteSpace=wrap;html=1;" parent="1" vertex="1">
          <mxGeometry x="360" y="80" width="40" height="60" as="geometry" />
        </mxCell>
        <mxCell id="pEV8uyBlemZev40eMHo9-9" value="" style="rounded=0;whiteSpace=wrap;html=1;" parent="1" vertex="1">
          <mxGeometry x="80" y="140" width="40" height="60" as="geometry" />
        </mxCell>
        <mxCell id="pEV8uyBlemZev40eMHo9-10" value="" style="rounded=0;whiteSpace=wrap;html=1;" parent="1" vertex="1">
          <mxGeometry x="120" y="140" width="40" height="60" as="geometry" />
        </mxCell>
        <mxCell id="pEV8uyBlemZev40eMHo9-11" value="" style="rounded=0;whiteSpace=wrap;html=1;" parent="1" vertex="1">
          <mxGeometry x="160" y="140" width="40" height="60" as="geometry" />
        </mxCell>
        <mxCell id="pEV8uyBlemZev40eMHo9-12" value="" style="rounded=0;whiteSpace=wrap;html=1;" parent="1" vertex="1">
          <mxGeometry x="200" y="140" width="40" height="60" as="geometry" />
        </mxCell>
        <mxCell id="pEV8uyBlemZev40eMHo9-13" value="" style="rounded=0;whiteSpace=wrap;html=1;" parent="1" vertex="1">
          <mxGeometry x="240" y="140" width="40" height="60" as="geometry" />
        </mxCell>
        <mxCell id="pEV8uyBlemZev40eMHo9-14" value="" style="rounded=0;whiteSpace=wrap;html=1;" parent="1" vertex="1">
          <mxGeometry x="280" y="140" width="40" height="60" as="geometry" />
        </mxCell>
        <mxCell id="pEV8uyBlemZev40eMHo9-15" value="" style="rounded=0;whiteSpace=wrap;html=1;" parent="1" vertex="1">
          <mxGeometry x="320" y="140" width="40" height="60" as="geometry" />
        </mxCell>
        <mxCell id="pEV8uyBlemZev40eMHo9-16" value="" style="rounded=0;whiteSpace=wrap;html=1;" parent="1" vertex="1">
          <mxGeometry x="360" y="140" width="40" height="60" as="geometry" />
        </mxCell>
        <mxCell id="pEV8uyBlemZev40eMHo9-17" value="Lantai 1 Belakang" style="text;html=1;align=center;verticalAlign=middle;whiteSpace=wrap;rounded=0;" parent="1" vertex="1">
          <mxGeometry x="200" y="10" width="60" height="30" as="geometry" />
        </mxCell>
        <mxCell id="pEV8uyBlemZev40eMHo9-18" value="Lantai 1 Depan" style="text;html=1;align=center;verticalAlign=middle;whiteSpace=wrap;rounded=0;" parent="1" vertex="1">
          <mxGeometry x="340" y="200" width="60" height="30" as="geometry" />
        </mxCell>
        <mxCell id="pEV8uyBlemZev40eMHo9-19" value="" style="rounded=0;whiteSpace=wrap;html=1;" parent="1" vertex="1">
          <mxGeometry x="280" y="240" width="60" height="40" as="geometry" />
        </mxCell>
        <mxCell id="pEV8uyBlemZev40eMHo9-20" value="" style="rounded=0;whiteSpace=wrap;html=1;" parent="1" vertex="1">
          <mxGeometry x="340" y="240" width="60" height="40" as="geometry" />
        </mxCell>
        <mxCell id="pEV8uyBlemZev40eMHo9-21" value="" style="rounded=0;whiteSpace=wrap;html=1;" parent="1" vertex="1">
          <mxGeometry x="280" y="280" width="60" height="40" as="geometry" />
        </mxCell>
        <mxCell id="pEV8uyBlemZev40eMHo9-22" value="" style="rounded=0;whiteSpace=wrap;html=1;" parent="1" vertex="1">
          <mxGeometry x="340" y="280" width="60" height="40" as="geometry" />
        </mxCell>
        <mxCell id="pEV8uyBlemZev40eMHo9-23" value="Parkiran Lt1" style="rounded=0;whiteSpace=wrap;html=1;dashed=1;dashPattern=1 4;" parent="1" vertex="1">
          <mxGeometry x="80" y="240" width="160" height="80" as="geometry" />
        </mxCell>
        <mxCell id="pEV8uyBlemZev40eMHo9-24" value="" style="rounded=0;whiteSpace=wrap;html=1;" parent="1" vertex="1">
          <mxGeometry x="520" y="80" width="40" height="60" as="geometry" />
        </mxCell>
        <mxCell id="pEV8uyBlemZev40eMHo9-25" value="" style="rounded=0;whiteSpace=wrap;html=1;" parent="1" vertex="1">
          <mxGeometry x="560" y="80" width="40" height="60" as="geometry" />
        </mxCell>
        <mxCell id="pEV8uyBlemZev40eMHo9-26" value="" style="rounded=0;whiteSpace=wrap;html=1;" parent="1" vertex="1">
          <mxGeometry x="600" y="80" width="40" height="60" as="geometry" />
        </mxCell>
        <mxCell id="pEV8uyBlemZev40eMHo9-27" value="" style="rounded=0;whiteSpace=wrap;html=1;" parent="1" vertex="1">
          <mxGeometry x="640" y="80" width="40" height="60" as="geometry" />
        </mxCell>
        <mxCell id="pEV8uyBlemZev40eMHo9-28" value="" style="rounded=0;whiteSpace=wrap;html=1;" parent="1" vertex="1">
          <mxGeometry x="680" y="80" width="40" height="60" as="geometry" />
        </mxCell>
        <mxCell id="pEV8uyBlemZev40eMHo9-29" value="" style="rounded=0;whiteSpace=wrap;html=1;" parent="1" vertex="1">
          <mxGeometry x="720" y="80" width="40" height="60" as="geometry" />
        </mxCell>
        <mxCell id="pEV8uyBlemZev40eMHo9-30" value="" style="rounded=0;whiteSpace=wrap;html=1;" parent="1" vertex="1">
          <mxGeometry x="760" y="80" width="40" height="60" as="geometry" />
        </mxCell>
        <mxCell id="pEV8uyBlemZev40eMHo9-31" value="" style="rounded=0;whiteSpace=wrap;html=1;" parent="1" vertex="1">
          <mxGeometry x="800" y="80" width="40" height="60" as="geometry" />
        </mxCell>
        <mxCell id="pEV8uyBlemZev40eMHo9-32" value="" style="rounded=0;whiteSpace=wrap;html=1;" parent="1" vertex="1">
          <mxGeometry x="520" y="140" width="40" height="60" as="geometry" />
        </mxCell>
        <mxCell id="pEV8uyBlemZev40eMHo9-33" value="" style="rounded=0;whiteSpace=wrap;html=1;" parent="1" vertex="1">
          <mxGeometry x="560" y="140" width="40" height="60" as="geometry" />
        </mxCell>
        <mxCell id="pEV8uyBlemZev40eMHo9-34" value="" style="rounded=0;whiteSpace=wrap;html=1;" parent="1" vertex="1">
          <mxGeometry x="600" y="140" width="40" height="60" as="geometry" />
        </mxCell>
        <mxCell id="pEV8uyBlemZev40eMHo9-35" value="" style="rounded=0;whiteSpace=wrap;html=1;" parent="1" vertex="1">
          <mxGeometry x="640" y="140" width="40" height="60" as="geometry" />
        </mxCell>
        <mxCell id="pEV8uyBlemZev40eMHo9-36" value="" style="rounded=0;whiteSpace=wrap;html=1;" parent="1" vertex="1">
          <mxGeometry x="680" y="140" width="40" height="60" as="geometry" />
        </mxCell>
        <mxCell id="pEV8uyBlemZev40eMHo9-37" value="" style="rounded=0;whiteSpace=wrap;html=1;" parent="1" vertex="1">
          <mxGeometry x="720" y="140" width="40" height="60" as="geometry" />
        </mxCell>
        <mxCell id="pEV8uyBlemZev40eMHo9-38" value="" style="rounded=0;whiteSpace=wrap;html=1;" parent="1" vertex="1">
          <mxGeometry x="760" y="140" width="40" height="60" as="geometry" />
        </mxCell>
        <mxCell id="pEV8uyBlemZev40eMHo9-39" value="" style="rounded=0;whiteSpace=wrap;html=1;" parent="1" vertex="1">
          <mxGeometry x="800" y="140" width="40" height="60" as="geometry" />
        </mxCell>
        <mxCell id="pEV8uyBlemZev40eMHo9-40" value="Lantai 2 Belakang" style="text;html=1;align=center;verticalAlign=middle;whiteSpace=wrap;rounded=0;" parent="1" vertex="1">
          <mxGeometry x="640" y="10" width="60" height="30" as="geometry" />
        </mxCell>
        <mxCell id="pEV8uyBlemZev40eMHo9-41" value="Lantai 2 Depan" style="text;html=1;align=center;verticalAlign=middle;whiteSpace=wrap;rounded=0;" parent="1" vertex="1">
          <mxGeometry x="800" y="210" width="60" height="30" as="geometry" />
        </mxCell>
        <mxCell id="pEV8uyBlemZev40eMHo9-42" value="" style="rounded=0;whiteSpace=wrap;html=1;" parent="1" vertex="1">
          <mxGeometry x="720" y="240" width="60" height="40" as="geometry" />
        </mxCell>
        <mxCell id="pEV8uyBlemZev40eMHo9-43" value="" style="rounded=0;whiteSpace=wrap;html=1;" parent="1" vertex="1">
          <mxGeometry x="780" y="240" width="60" height="40" as="geometry" />
        </mxCell>
        <mxCell id="pEV8uyBlemZev40eMHo9-44" value="" style="rounded=0;whiteSpace=wrap;html=1;" parent="1" vertex="1">
          <mxGeometry x="720" y="280" width="60" height="40" as="geometry" />
        </mxCell>
        <mxCell id="pEV8uyBlemZev40eMHo9-45" value="" style="rounded=0;whiteSpace=wrap;html=1;" parent="1" vertex="1">
          <mxGeometry x="780" y="280" width="60" height="40" as="geometry" />
        </mxCell>
        <mxCell id="pEV8uyBlemZev40eMHo9-46" value="Parkiran&lt;div&gt;Lt1&lt;/div&gt;" style="rounded=0;whiteSpace=wrap;html=1;dashed=1;dashPattern=1 4;" parent="1" vertex="1">
          <mxGeometry x="520" y="240" width="160" height="80" as="geometry" />
        </mxCell>
        <mxCell id="pEV8uyBlemZev40eMHo9-49" value="" style="ellipse;whiteSpace=wrap;html=1;aspect=fixed;rounded=0;strokeColor=#6c8ebf;align=center;verticalAlign=middle;fontFamily=Helvetica;fontSize=12;fillColor=#dae8fc;" parent="1" vertex="1">
          <mxGeometry x="110" y="60" width="20" height="20" as="geometry" />
        </mxCell>
        <mxCell id="pEV8uyBlemZev40eMHo9-50" value="" style="ellipse;whiteSpace=wrap;html=1;aspect=fixed;rounded=0;strokeColor=#6c8ebf;align=center;verticalAlign=middle;fontFamily=Helvetica;fontSize=12;fillColor=#dae8fc;" parent="1" vertex="1">
          <mxGeometry x="190" y="60" width="20" height="20" as="geometry" />
        </mxCell>
        <mxCell id="pEV8uyBlemZev40eMHo9-51" value="" style="ellipse;whiteSpace=wrap;html=1;aspect=fixed;rounded=0;strokeColor=#6c8ebf;align=center;verticalAlign=middle;fontFamily=Helvetica;fontSize=12;fillColor=#dae8fc;" parent="1" vertex="1">
          <mxGeometry x="350" y="60" width="20" height="20" as="geometry" />
        </mxCell>
        <mxCell id="pEV8uyBlemZev40eMHo9-52" value="" style="ellipse;whiteSpace=wrap;html=1;aspect=fixed;rounded=0;strokeColor=#6c8ebf;align=center;verticalAlign=middle;fontFamily=Helvetica;fontSize=12;fillColor=#dae8fc;" parent="1" vertex="1">
          <mxGeometry x="270" y="60" width="20" height="20" as="geometry" />
        </mxCell>
        <mxCell id="pEV8uyBlemZev40eMHo9-53" value="" style="ellipse;whiteSpace=wrap;html=1;aspect=fixed;rounded=0;strokeColor=#6c8ebf;align=center;verticalAlign=middle;fontFamily=Helvetica;fontSize=12;fillColor=#dae8fc;" parent="1" vertex="1">
          <mxGeometry x="260" y="270" width="20" height="20" as="geometry" />
        </mxCell>
        <mxCell id="pEV8uyBlemZev40eMHo9-54" value="" style="ellipse;whiteSpace=wrap;html=1;aspect=fixed;rounded=0;strokeColor=#6c8ebf;align=center;verticalAlign=middle;fontFamily=Helvetica;fontSize=12;fillColor=#dae8fc;" parent="1" vertex="1">
          <mxGeometry x="840" y="270" width="20" height="20" as="geometry" />
        </mxCell>
        <mxCell id="pEV8uyBlemZev40eMHo9-55" value="Survey 3 September 2025&lt;div&gt;&lt;br&gt;&lt;/div&gt;&lt;div&gt;1. Penambahan 4 AP area lantai 1 belakang&lt;/div&gt;&lt;div&gt;2. Penambahan 1 AP area lantai 1 &quot;2 kamar&quot;&lt;/div&gt;&lt;div&gt;3. Penambahan 1 AP area lantai 2 belakang &quot;2 kamar&quot;&lt;/div&gt;&lt;div&gt;4. Penambahan 1 switch di server&lt;/div&gt;&lt;div&gt;5. Penarikan kabel dari server semua&lt;/div&gt;&lt;div&gt;&lt;br&gt;&lt;/div&gt;&lt;div&gt;&lt;br&gt;&lt;/div&gt;" style="text;html=1;align=left;verticalAlign=top;whiteSpace=wrap;rounded=0;fontFamily=Helvetica;fontSize=12;fontColor=default;" parent="1" vertex="1">
          <mxGeometry x="280" y="360" width="380" height="120" as="geometry" />
        </mxCell>
        <mxCell id="pEV8uyBlemZev40eMHo9-56" value="Tim Survey Nexa&lt;div&gt;&lt;br&gt;&lt;/div&gt;&lt;div&gt;&lt;br&gt;&lt;/div&gt;&lt;div&gt;&lt;br&gt;&lt;/div&gt;&lt;div&gt;&lt;br&gt;&lt;/div&gt;&lt;div&gt;&lt;br&gt;&lt;/div&gt;&lt;div&gt;Henokh Zoe Faith&lt;/div&gt;" style="text;html=1;align=left;verticalAlign=top;whiteSpace=wrap;rounded=0;fontFamily=Helvetica;fontSize=12;fontColor=default;" parent="1" vertex="1">
          <mxGeometry x="620" y="500" width="120" height="110" as="geometry" />
        </mxCell>
        <mxCell id="pEV8uyBlemZev40eMHo9-57" value="Semarang, 3 September 2025&lt;div&gt;&lt;br&gt;&lt;/div&gt;&lt;div&gt;&lt;br&gt;&lt;/div&gt;&lt;div&gt;&lt;br&gt;&lt;/div&gt;&lt;div&gt;&lt;br&gt;&lt;/div&gt;&lt;div&gt;&lt;br&gt;&lt;/div&gt;&lt;div&gt;Pak Zaenal&lt;/div&gt;" style="text;html=1;align=left;verticalAlign=top;whiteSpace=wrap;rounded=0;fontFamily=Helvetica;fontSize=12;fontColor=default;" parent="1" vertex="1">
          <mxGeometry x="280" y="500" width="160" height="110" as="geometry" />
        </mxCell>
      </root>
    </mxGraphModel>
  </diagram>
</mxfile>
